<svg width="228" height="260" viewBox="0 0 228 260" fill="none" xmlns="http://www.w3.org/2000/svg">
<path d="M25.6389 234.077C47.2389 228.477 72.3056 198.077 79.6389 181.077C85.3056 198.411 73.4389 244.877 92.6389 256.077C111.839 267.277 162.639 245.411 175.639 234.077C182.306 227.744 213.639 202.077 220.639 186.077L226.639 121.077V103.077C226.639 87.0773 229.239 84.0773 215.639 44.0773C202.039 4.07726 191.639 5.07725 175.639 1.07726C168.972 -2.58941 127.266 12.0221 73.6389 22.0773C25.6389 31.0773 7.63889 69.0773 1.63889 80.0773C-3.16111 88.8773 8.63889 140.077 10.6389 156.077C6.30556 189.411 4.0389 239.677 25.6389 234.077Z" fill="#585104" stroke="black"/>
<path d="M43.6389 49.0773C40.9722 46.0773 41.4389 38.2773 64.6389 31.0773" stroke="black"/>
<path d="M196.639 26.0773C198.306 24.4106 203.039 24.2773 208.639 37.0773" stroke="black"/>
<path d="M171.639 9.07726C177.972 9.07726 189.639 12.2773 185.639 25.0773" stroke="black"/>
<path d="M218.639 77.0773C222.639 82.0773 228.239 95.6773 218.639 110.077" stroke="black"/>
<path d="M214.639 161.077C219.306 163.077 223.039 172.077 200.639 192.077" stroke="black"/>
<path d="M92.6389 184.077C88.9722 192.077 83.8389 212.677 92.6389 231.077" stroke="black"/>
<path d="M15.6389 78.0773C12.6389 79.7439 8.43889 85.6773 15.6389 96.0773" stroke="black"/>
<path d="M44.6389 205.077C48.6389 205.744 60.0389 201.677 73.6389 180.077" stroke="black"/>
</svg>
