<svg width="275" height="213" viewBox="0 0 275 213" fill="none" xmlns="http://www.w3.org/2000/svg">
<path d="M14.7515 70.6021C-4.44847 99.4021 27.0849 96.9355 56.7515 103.602C31.7515 103.602 34.7515 113.602 5.75153 128.602C-17.4485 140.602 42.4182 188.269 64.7515 192.602C83.7515 210.602 97.5515 185.802 140.752 206.602C194.752 232.602 236.927 163.602 243.252 163.602C253.252 163.602 278.752 123.602 273.752 94.6021C268.752 65.6021 241.752 48.6021 213.752 25.6021C185.752 2.60213 164.752 14.6021 140.752 2.60213C121.552 -6.99787 88.0849 18.6021 73.7515 32.6021C65.4182 37.2688 33.9515 41.8021 14.7515 70.6021Z" fill="#517F29" stroke="black"/>
<path d="M229.752 48.6021C235.085 50.6021 246.152 56.6021 247.752 64.6021" stroke="black"/>
<path d="M234.752 147.602C239.085 153.269 247.952 161.202 248.752 147.602" stroke="black"/>
<path d="M224.752 148.602C227.418 152.935 231.152 163.002 224.752 168.602" stroke="black"/>
<path d="M72.7515 181.602C75.0849 184.935 85.5515 190.602 108.752 186.602" stroke="black"/>
<path d="M12.7515 135.602C13.0849 134.602 18.7515 130.602 38.7515 122.602" stroke="black"/>
<path d="M35.7515 86.6021C35.0849 88.6021 38.7515 93.0021 58.7515 94.6021" stroke="black"/>
<path d="M157.752 21.6021C157.752 18.2688 161.752 12.6021 177.752 16.6021" stroke="black"/>
<path d="M122.752 10.6021C125.085 7.2688 132.352 4.40213 142.752 19.6021" stroke="black"/>
</svg>
